HIERARCHY
ROOT hip
{
  OFFSET 0 0 0
  CHANNELS 6 Xposition Yposition Zposition Zrotation Yrotation Xrotation
  JOINT abdomen
  {
    OFFSET 0 20.6881 -0.73152
    CHANNELS 3 Zrotation Xrotation Yrotation
    JOINT chest
    {
      OFFSET 0 11.7043 -0.48768
      CHANNELS 3 Zrotation Xrotation Yrotation
      JOINT neck
      {
        OFFSET 0 22.1894 -2.19456
        CHANNELS 3 Zrotation Xrotation Yrotation
        JOINT head
        {
          OFFSET -0.24384 7.07133 1.2192
          CHANNELS 3 Zrotation Xrotation Yrotation
          JOINT leftEye
          {
            OFFSET 4.14528 8.04674 8.04672
            CHANNELS 3 Zrotation Xrotation Yrotation
            End Site
            {
              OFFSET 1 0 0
            }
          }
          JOINT rightEye
          {
            OFFSET -3.6576 8.04674 8.04672
            CHANNELS 3 Zrotation Xrotation Yrotation
            End Site
            {
              OFFSET 1 0 0
            }
          }
        }
      }
      JOINT rCollar
      {
        OFFSET -2.68224 19.2634 -4.8768
        CHANNELS 3 Zrotation Xrotation Yrotation
        JOINT rShldr
        {
          OFFSET -8.77824 -1.95073 1.46304
          CHANNELS 3 Zrotation Xrotation Yrotation
          JOINT rForeArm
          {
            OFFSET -28.1742 -1.7115 0.48768
            CHANNELS 3 Zrotation Xrotation Yrotation
            JOINT rHand
            {
              OFFSET -22.5879 0.773209 7.07136
              CHANNELS 3 Zrotation Xrotation Yrotation
              JOINT rThumb1
              {
                OFFSET -1.2192 -0.487915 3.41376
                CHANNELS 3 Zrotation Xrotation Yrotation
                JOINT rThumb2
                {
                  OFFSET -3.37035 -0.52449 3.41376
                  CHANNELS 3 Zrotation Xrotation Yrotation
                  End Site
                  {
                    OFFSET -1.78271 -1.18214 1.43049
                  }
                }
              }
              JOINT rIndex1
              {
                OFFSET -7.75947 0.938293 5.60832
                CHANNELS 3 Zrotation Xrotation Yrotation
                JOINT rIndex2
                {
                  OFFSET -2.54057 -0.884171 1.56538
                  CHANNELS 3 Zrotation Xrotation Yrotation
                  End Site
                  {
                    OFFSET -1.62519 -0.234802 1.16502
                  }
                }
              }
              JOINT rMid1
              {
                OFFSET -8.24714 1.18213 3.41376
                CHANNELS 3 Zrotation Xrotation Yrotation
                JOINT rMid2
                {
                  OFFSET -3.10165 -0.590103 1.0647
                  CHANNELS 3 Zrotation Xrotation Yrotation
                  End Site
                  {
                    OFFSET -2.48547 -0.328903 0.83742
                  }
                }
              }
              JOINT rRing1
              {
                OFFSET -8.82822 0.546677 1.51678
                CHANNELS 3 Zrotation Xrotation Yrotation
                JOINT rRing2
                {
                  OFFSET -2.60934 -0.819778 -0.0198488
                  CHANNELS 3 Zrotation Xrotation Yrotation
                  End Site
                  {
                    OFFSET -2.33842 -0.294052 0.168128
                  }
                }
              }
              JOINT rPinky1
              {
                OFFSET -8.27202 -0.0477905 -0.4584
                CHANNELS 3 Zrotation Xrotation Yrotation
                JOINT rPinky2
                {
                  OFFSET -1.82734 -0.647385 -0.700984
                  CHANNELS 3 Zrotation Xrotation Yrotation
                  End Site
                  {
                    OFFSET -1.69225 -0.51767 -0.607171
                  }
                }
              }
            }
          }
        }
      }
      JOINT lCollar
      {
        OFFSET 2.68224 19.2634 -4.8768
        CHANNELS 3 Zrotation Xrotation Yrotation
        JOINT lShldr
        {
          OFFSET 8.77824 -1.95073 1.46304
          CHANNELS 3 Zrotation Xrotation Yrotation
          JOINT lForeArm
          {
            OFFSET 28.1742 -1.7115 0.48768
            CHANNELS 3 Zrotation Xrotation Yrotation
            JOINT lHand
            {
              OFFSET 22.5879 0.773209 7.07136
              CHANNELS 3 Zrotation Xrotation Yrotation
              JOINT lThumb1
              {
                OFFSET 1.2192 -0.487915 3.41376
                CHANNELS 3 Zrotation Xrotation Yrotation
                JOINT lThumb2
                {
                  OFFSET 3.37035 -0.52449 3.41376
                  CHANNELS 3 Zrotation Xrotation Yrotation
                  End Site
                  {
                    OFFSET 1.78271 -1.18214 1.43049
                  }
                }
              }
              JOINT lIndex1
              {
                OFFSET 7.75947 0.938293 5.60832
                CHANNELS 3 Zrotation Xrotation Yrotation
                JOINT lIndex2
                {
                  OFFSET 2.54057 -0.884171 1.56538
                  CHANNELS 3 Zrotation Xrotation Yrotation
                  End Site
                  {
                    OFFSET 1.62519 -0.234802 1.16502
                  }
                }
              }
              JOINT lMid1
              {
                OFFSET 8.24714 1.18213 3.41376
                CHANNELS 3 Zrotation Xrotation Yrotation
                JOINT lMid2
                {
                  OFFSET 3.10165 -0.590103 1.0647
                  CHANNELS 3 Zrotation Xrotation Yrotation
                  End Site
                  {
                    OFFSET 2.48547 -0.328903 0.83742
                  }
                }
              }
              JOINT lRing1
              {
                OFFSET 8.82822 0.546677 1.51678
                CHANNELS 3 Zrotation Xrotation Yrotation
                JOINT lRing2
                {
                  OFFSET 2.60934 -0.819778 -0.0198488
                  CHANNELS 3 Zrotation Xrotation Yrotation
                  End Site
                  {
                    OFFSET 2.33842 -0.294052 0.168128
                  }
                }
              }
              JOINT lPinky1
              {
                OFFSET 8.27202 -0.0477905 -0.4584
                CHANNELS 3 Zrotation Xrotation Yrotation
                JOINT lPinky2
                {
                  OFFSET 1.82734 -0.647385 -0.700984
                  CHANNELS 3 Zrotation Xrotation Yrotation
                  End Site
                  {
                    OFFSET 1.69225 -0.51767 -0.607171
                  }
                }
              }
            }
          }
        }
      }
    }
  }
  JOINT rButtock
  {
    OFFSET -8.77824 4.35084 1.2192
    CHANNELS 3 Zrotation Xrotation Yrotation
    JOINT rThigh
    {
      OFFSET 0 -1.70687 -2.19456
      CHANNELS 3 Zrotation Xrotation Yrotation
      JOINT rShin
      {
        OFFSET 0 -36.8199 0.73152
        CHANNELS 3 Zrotation Xrotation Yrotation
        JOINT rFoot
        {
          OFFSET 0.73152 -45.1104 -5.12064
          CHANNELS 3 Zrotation Xrotation Yrotation
          End Site
          {
            OFFSET -1.1221 -3.69964 12.103
          }
        }
      }
    }
  }
  JOINT lButtock
  {
    OFFSET 8.77824 4.35084 1.2192
    CHANNELS 3 Zrotation Xrotation Yrotation
    JOINT lThigh
    {
      OFFSET 0 -1.70687 -2.19456
      CHANNELS 3 Zrotation Xrotation Yrotation
      JOINT lShin
      {
        OFFSET 0 -36.8199 0.73152
        CHANNELS 3 Zrotation Xrotation Yrotation
        JOINT lFoot
        {
          OFFSET -0.73152 -45.1104 -5.12064
          CHANNELS 3 Zrotation Xrotation Yrotation
          End Site
          {
            OFFSET 1.1221 -3.69964 12.103
          }
        }
      }
    }
  }
}
MOTION
Frames:	4
Frame Time:	0.03333
0.505787679925561 -0.054527148604393005 -1.147693669423461 6.833785772323608 -1.3469061255455017 -5.339401736855507 1.2446777522563934 7.010037079453468 10.036506280303001 3.8973965495824814 -8.97697739303112 1.154850572347641 -6.222709491848946 4.655059240758419 2.008332833647728 10.21941751241684 10.847236812114716 -4.992309808731079 -10.395898148417473 -2.59417824447155 2.756683900952339 10.295910090208054 -1.7211731895804405 9.98040720820427 13.694868385791779 8.421496599912643 -3.001548796892166 -2.4591927230358124 -6.455225497484207 -4.784604907035828 -1.9655298069119453 0.706210546195507 -4.240337088704109 -15.844562351703644 9.085132107138634 -0.6329842284321785 0.5468851514160633 -8.652491122484207 19.61169943213463 8.256278559565544 12.5623619556427 -3.714650943875313 -3.1200112402439117 -10.356548130512238 0.9127848967909813 -1.4806350320577621 6.404476761817932 3.372204601764679 10.704672038555145 2.9572393745183945 11.92167341709137 -2.063908204436302 -7.802068591117859 -0.4541577072814107 0.6229862105101347 6.774981692433357 -4.802973009645939 -10.68009227514267 -7.820575833320618 -7.758025377988815 -6.521776467561722 -7.231547981500626 11.865778863430023 5.615863054990768 -3.3342094346880913 -1.8130723759531975 1.181029099971056 -0.9655322134494781 -3.5735053941607475 4.07619159668684 -2.2281965240836143 -8.584456220269203 6.278998330235481 -4.718374125659466 -3.5158053785562515 -0.22439930588006973 10.73465846478939 -11.224589422345161 0.6126158684492111 -1.81645967066288 -0.6244210246950388 6.151977628469467 -2.296860571950674 10.47103688120842 11.714099943637848 9.715052917599678 -1.2155207991600037 6.278556436300278 5.9473612904548645 4.6276698634028435 -0.4196383059024811 -3.2512976601719856 -11.72667145729065 -11.060308143496513 12.452605962753296 7.958845719695091 0.2727223187685013 -13.005969822406769 -9.315991848707199 4.690139181911945 -5.588859915733337 -0.5780230835080147 -7.371761798858643 3.682463765144348 -15.701593905687332 9.679773822426796 11.752420663833618 -5.904723554849625 4.579709619283676 -11.960719674825668 11.431671380996704 -4.2610470950603485 -3.326955735683441 -9.430144652724266 16.917062401771545 -12.995916903018951 9.487682059407234 -5.80788642168045 8.125599324703217 7.572610974311829 -1.484240759164095 -5.28672281652689 7.030687406659126 9.241318479180336 1.0876486636698246 -6.019885540008545 9.565924778580666 5.317368060350418 -14.98864397406578 -0.40961388498544693 -8.659737780690193 1.086927317082882
0.5112466001883149 -0.05176936089992523 -1.171385694295168 7.032722532749176 -2.247758712619543 -6.392927169799805 1.9656984508037567 8.254765123128891 9.629331529140472 4.005075171589851 -8.604328706860542 0.49245089292526245 -5.651805996894836 5.348488055169582 2.099955417215824 8.88150617480278 10.493474900722504 -5.711940452456474 -10.681837722659111 -3.546343669295311 3.219643235206604 9.736794233322144 -1.7874525859951973 8.671007752418518 13.748336881399155 7.993664816021919 -3.3137012645602226 -2.665822058916092 -7.1332671493291855 -4.73515972495079 -1.3033848535269499 0.3267446905374527 -4.459907412528992 -14.939916282892227 9.234602898359299 0.1317242905497551 0.4772130958735943 -8.71057704091072 19.174406826496124 7.529880702495575 13.19434940814972 -4.600423648953438 -3.0731074512004852 -10.04392459988594 1.2578187324106693 -1.5600604377686977 7.2391413152217865 4.093505926430225 9.995709881186485 3.0476371943950653 11.280995607376099 -2.0921391248703003 -8.332808688282967 -0.029614605009555817 0.5418327916413546 6.819094642996788 -4.279881566762924 -10.538502484560013 -7.631547152996063 -7.514861673116684 -7.577377259731293 -7.1050456166267395 11.731699258089066 5.450976602733135 -3.9470257982611656 -1.8975002691149712 2.0245529897511005 0.03270551562309265 -3.0547034740448 3.670908138155937 -1.3722419366240501 -8.786045014858246 6.396520659327507 -4.546581991016865 -4.043622873723507 -0.8785912580788136 10.250602886080742 -10.944409891963005 1.0478223860263824 -1.3558455929160118 -0.6753800623118877 6.349079757928848 -2.6043989695608616 10.400608107447624 11.00730836391449 9.765881448984146 -1.543152965605259 5.604853928089142 5.296680182218552 4.481540098786354 0.011661909520626068 -3.7014712393283844 -11.277312934398651 -11.012446135282516 11.728669703006744 7.863947823643684 0.480761406943202 -12.455902397632599 -8.945931494235992 5.217750817537308 -5.5130090564489365 0.1036791130900383 -7.743994742631912 3.9772532880306244 -15.510439574718475 9.890021458268166 11.307487785816193 -5.812842473387718 4.002287685871124 -12.182538360357285 11.007790490984917 -3.4837080538272858 -3.2684772089123726 -9.657846093177795 17.103408873081207 -12.732210159301758 7.8102681040763855 -5.536646693944931 8.649398535490036 7.288064137101173 -1.133890701457858 -5.513269230723381 6.987920254468918 9.27896462380886 1.4322235062718391 -5.88882677257061 8.526031002402306 4.60345521569252 -15.037780702114105 -0.9654946625232697 -8.29281359910965 1.2421249598264694
0.5175022855401039 -0.05311375856399536 -1.1954997442662716 7.042603120207787 -1.0962959378957748 -6.214171350002289 1.247807890176773 7.777618244290352 10.058012902736664 3.7220685929059982 -8.330843299627304 0.366288498044014 -5.171042829751968 4.454730413854122 2.209875024855137 9.668159186840057 10.544899553060532 -5.397671386599541 -10.133242160081863 -2.815927192568779 2.7562708407640457 9.34585690498352 -1.5009735524654388 9.048931002616882 14.11662295460701 7.986978068947792 -3.8136589899659157 -3.0141571909189224 -6.849149465560913 -4.933687448501587 -1.4664268679916859 1.0052252188324928 -4.285632222890854 -14.761829674243927 9.646411836147308 -0.35242751240730286 0.8095014095306396 -9.196127951145172 18.92828330397606 7.127920165657997 12.35323280096054 -3.8214166089892387 -2.999218627810478 -9.612854719161987 0.5328221619129181 -1.7514444328844547 6.823343932628632 3.596853017807007 10.606448203325272 2.9400283098220825 11.346916258335114 -2.504616267979145 -8.647454604506493 -0.7600963767617941 0.33844473771750927 7.207037955522537 -3.8527508452534676 -10.179832130670547 -8.064187467098236 -7.251627668738365 -7.551637440919876 -7.069968357682228 11.844441890716553 5.387247651815414 -3.3552996441721916 -1.55735794454813 2.33265683054924 0.29744625091552734 -2.717406637966633 4.394176192581654 -1.0440562292933464 -8.56783926486969 6.51667557656765 -4.3719711899757385 -3.7416715174913406 -0.5575600080192089 10.557704418897629 -10.93285158276558 0.47511979937553406 -0.7106147333979607 -0.4760238714516163 5.895969495177269 -2.094313558191061 10.020095854997635 11.157260611653328 10.137211829423904 -1.4689694344997406 5.903248339891434 5.723072290420532 4.004994705319405 0.14321353286504745 -3.997880145907402 -11.364527642726898 -10.94968244433403 12.212269306182861 8.027008697390556 1.0814852826297283 -12.804521173238754 -8.940115123987198 5.214781276881695 -5.33855315297842 -0.11051199864596128 -7.364814877510071 3.674214631319046 -15.440860390663147 10.347961708903313 11.817351579666138 -6.0822321474552155 3.461572453379631 -12.706530690193176 11.116019636392593 -3.8242533802986145 -3.046780563890934 -9.859697073698044 16.57740354537964 -14.18542429804802 8.251427784562111 -5.470884293317795 8.504720851778984 7.731861099600792 -1.2467826157808304 -5.749129951000214 6.9868674874305725 9.207001626491547 1.4147526025772095 -5.654484182596207 9.132394641637802 4.748385027050972 -15.187414437532425 -1.6759015247225761 -8.382581770420074 1.434043049812317
0.5260687414556742 -0.05633968859910965 -1.2195676378905773 6.97595089673996 0.9526790678501129 -5.237458683550358 -0.005237683653831482 6.57269686460495 10.79326942563057 3.290528655052185 -8.439536467194557 0.7961295917630196 -5.089653544127941 3.1280115991830826 2.238253466784954 11.60489246249199 10.739066675305367 -4.615203961730003 -9.452262818813324 -1.358373910188675 2.0670752227306366 9.48833517730236 -0.9850318729877472 10.418984591960907 14.415400922298431 8.248859569430351 -4.1424743458628654 -3.1349779665470123 -5.914933383464813 -5.232154615223408 -2.1579575166106224 1.7618753761053085 -3.995523825287819 -15.2706179022789 9.831619709730148 -1.3019945472478867 1.329194912686944 -9.625175446271896 18.994480222463608 7.312837019562721 10.996324047446251 -2.3873289674520493 -2.9667820036411285 -9.33224804699421 -0.3944918420165777 -1.8867736123502254 5.832726359367371 2.5445352494716644 11.658812910318375 2.7614669501781464 11.89907044172287 -2.9022440314292908 -8.525618612766266 -1.8048415146768093 0.2755652507767081 7.471762597560883 -3.766166791319847 -9.82108935713768 -8.580319583415985 -7.235735580325127 -6.595286428928375 -7.223984822630882 12.053347080945969 5.5578867718577385 -2.4194269627332687 -1.0960444808006287 2.145198080688715 -0.0579390674829483 -2.9474882036447525 5.685596466064453 -1.2519663199782372 -8.229785710573196 6.435868665575981 -4.2762260511517525 -3.0615444481372833 0.11510096490383148 11.347246170043945 -11.034040600061417 -0.3620707243680954 -0.3186001628637314 -0.05698906257748604 5.475076586008072 -1.5398528426885605 9.620458111166954 11.754095703363419 10.38653589785099 -1.1628978699445724 6.669943705201149 6.576144844293594 3.555459827184677 -0.16797903925180435 -3.9105722308158875 -11.766172349452972 -10.916633605957031 13.126044273376465 8.331189304590225 1.4352208748459816 -13.405555933713913 -9.012182727456093 4.745160341262817 -5.177897214889526 -1.0015296377241611 -6.720184832811356 3.1345856934785843 -15.434069037437439 10.48437550663948 12.528682798147202 -6.302832439541817 3.4386204555630684 -13.115871995687485 11.603118181228638 -4.737265929579735 -2.8997770696878433 -9.901888892054558 15.99648803472519 -15.625460743904114 9.967993944883347 -5.700158178806305 7.9075900465250015 8.33207979798317 -1.5556602738797665 -5.855252891778946 6.955514475703239 9.043409675359726 1.1529747024178505 -5.451094955205917 10.456998199224472 5.449832305312157 -15.267069339752197 -1.8913682363927364 -8.691082745790482 1.5897808223962784
